<svg width="425" height="299" viewBox="0 0 425 299" fill="none" xmlns="http://www.w3.org/2000/svg">
<g filter="url(#filter0_d_208_144)">
<path d="M318.722 21.8946L404.222 21.8946L336.222 142.965L291.722 113.465L273.627 78.1621L318.722 21.8946Z" fill="url(#paint0_linear_208_144)"/>
<path d="M276.59 78.4624L319.923 24.3946L399.951 24.3946L335.361 139.395L293.649 111.743L276.59 78.4624Z" stroke="black" stroke-width="5"/>
</g>
<g filter="url(#filter1_d_208_144)">
<path d="M180.222 39.4654C155.261 34.2692 148.222 39.4654 148.222 39.4654C148.222 39.4654 182.869 65.8668 200.183 79.2552C266.489 130.527 237.307 220.656 308.835 264.347C318.721 270.386 335.105 278.125 335.105 278.125L393.36 260.266C393.36 260.266 361.82 260.004 344.722 250.465C325.77 239.892 329.883 233.94 317.722 215.965C305.122 197.341 301.136 187.037 289.222 167.965C275.407 145.849 272.37 136.371 258.222 114.465C246.449 96.2348 232.671 70.1498 214.522 58.2498C205.557 52.3714 190.718 41.6502 180.222 39.4654Z" fill="url(#paint1_linear_208_144)"/>
</g>
<g filter="url(#filter2_d_208_144)">
<path d="M64.7224 248.443C39.7147 238.872 11.7223 204.943 11.7223 204.943C11.7223 204.943 53.0761 220.035 80.7223 220.943C112.949 222.001 133.194 219.969 161.722 204.943C193.118 188.406 224.722 139.465 224.722 139.465L255.722 165.465L275.722 184.965L219.724 219.701C218.39 220.528 217.031 221.287 215.616 221.968C206.433 226.384 169.148 243.78 142.222 248.443C142.222 248.443 92.9886 259.261 64.7224 248.443Z" fill="url(#paint2_linear_208_144)"/>
<path d="M221.33 148.821C222.997 146.481 224.324 144.552 225.256 143.175L254.044 167.321L271.69 184.525L218.406 217.577C217.138 218.364 215.856 219.078 214.533 219.715C205.303 224.153 168.324 241.386 141.796 245.98L141.741 245.989L141.686 246.001L141.686 246.001L141.685 246.001L141.68 246.002L141.656 246.008L141.557 246.029C141.467 246.048 141.332 246.077 141.152 246.114C140.794 246.189 140.261 246.298 139.571 246.433C138.19 246.704 136.179 247.08 133.676 247.498C128.667 248.335 121.698 249.34 113.86 250.009C98.0682 251.357 79.1836 251.301 65.616 246.108C53.608 241.512 40.6611 230.942 30.572 221.297C26.3459 217.257 22.6682 213.425 19.8289 210.345C23.9497 211.687 29.2452 213.337 35.177 215.009C49.0046 218.905 66.4981 222.977 80.6402 223.442C113.113 224.508 133.838 222.456 162.887 207.155C179.052 198.64 195.066 181.935 206.922 167.596C212.882 160.388 217.851 153.704 221.33 148.821Z" stroke="black" stroke-width="5"/>
</g>
<g filter="url(#filter3_d_208_144)">
<path d="M5.16133 183.353C7.99079 193.658 16.0225 201.722 26.3166 204.592L73.5026 217.748C46.4294 179.201 47.5295 127.537 76.219 90.1784L80.2224 84.9652L97.8352 61.4623C115.849 37.4239 146.076 25.6437 175.64 30.969C182.961 32.2878 190.099 34.6583 196.75 37.9927C205.649 42.4543 213.608 48.5832 220.196 56.0465L245.722 84.9652L286.722 152.965L337.222 240.965C337.222 240.965 399.716 264.854 402.722 253.248C402.722 253.248 368.919 238.465 364.502 230.247C355.359 213.234 343.898 187.692 336.488 170.686C331.362 158.923 325.304 147.592 318.179 136.92L273.003 69.2475L257.181 48.5917C243.964 31.3363 226.418 17.8844 206.323 9.60088C183.628 0.245668 158.655 -2.1171 134.608 2.81561L123.765 5.03987C103.776 9.14016 84.7599 17.0398 67.7493 28.3098L60.7224 32.9653L40.5481 55.3361C32.2178 64.5732 25.0896 74.8272 19.3332 85.8536L14.6292 94.864C0.40781 122.105 -2.97482 153.72 5.16133 183.353Z" fill="url(#paint3_linear_208_144)"/>
<path d="M247.597 83.3107L247.746 83.4805L247.863 83.6743L288.863 151.674L288.877 151.698L288.891 151.721L338.944 238.943C339.391 239.11 340.009 239.34 340.776 239.623C342.48 240.249 344.919 241.132 347.857 242.156C353.736 244.205 361.591 246.811 369.525 249.053C377.491 251.304 385.409 253.151 391.46 253.736C394.085 253.99 396.206 253.99 397.769 253.751C397.314 253.541 396.827 253.315 396.313 253.074C393.053 251.55 388.653 249.428 384.107 247.043C379.572 244.664 374.843 241.998 370.945 239.384C368.997 238.078 367.217 236.758 365.757 235.468C364.331 234.207 363.06 232.845 362.3 231.431C353.102 214.316 341.605 188.688 334.196 171.685C329.123 160.044 323.134 148.845 316.1 138.308L270.968 70.7031L255.196 50.1119C242.248 33.2067 225.057 20.0276 205.37 11.9122C183.135 2.74683 158.67 0.431997 135.111 5.26461L124.267 7.48886C104.592 11.5249 85.8739 19.3006 69.1301 30.3939L62.3671 34.8746L42.4046 57.0104C34.2156 66.091 27.2082 76.171 21.5494 87.0105L16.8454 96.021C2.9163 122.702 -0.396802 153.667 7.57211 182.691C10.1689 192.149 17.5403 199.55 26.988 202.184L67.7484 213.548C43.9232 174.816 46.2582 125.088 74.2362 88.6557L78.2218 83.4659L78.2396 83.4425L95.8346 59.9631C114.42 35.1624 145.595 23.0168 176.083 28.5086C183.639 29.8696 191.005 32.3157 197.87 35.7578C207.055 40.3629 215.271 46.6889 222.07 54.3921L247.597 83.3107Z" stroke="black" stroke-width="5"/>
</g>
<defs>
<filter id="filter0_d_208_144" x="273.627" y="21.8946" width="150.596" height="141.071" filterUnits="userSpaceOnUse" color-interpolation-filters="sRGB">
<feFlood flood-opacity="0" result="BackgroundImageFix"/>
<feColorMatrix in="SourceAlpha" type="matrix" values="0 0 0 0 0 0 0 0 0 0 0 0 0 0 0 0 0 0 127 0" result="hardAlpha"/>
<feOffset dx="10" dy="10"/>
<feGaussianBlur stdDeviation="5"/>
<feComposite in2="hardAlpha" operator="out"/>
<feColorMatrix type="matrix" values="0 0 0 0 0.536304 0 0 0 0 0.386139 0 0 0 0 0 0 0 0 1 0"/>
<feBlend mode="normal" in2="BackgroundImageFix" result="effect1_dropShadow_208_144"/>
<feBlend mode="normal" in="SourceGraphic" in2="effect1_dropShadow_208_144" result="shape"/>
</filter>
<filter id="filter1_d_208_144" x="148.222" y="37.156" width="265.137" height="260.969" filterUnits="userSpaceOnUse" color-interpolation-filters="sRGB">
<feFlood flood-opacity="0" result="BackgroundImageFix"/>
<feColorMatrix in="SourceAlpha" type="matrix" values="0 0 0 0 0 0 0 0 0 0 0 0 0 0 0 0 0 0 127 0" result="hardAlpha"/>
<feOffset dx="10" dy="10"/>
<feGaussianBlur stdDeviation="5"/>
<feComposite in2="hardAlpha" operator="out"/>
<feColorMatrix type="matrix" values="0 0 0 0 0.536304 0 0 0 0 0.386139 0 0 0 0 0 0 0 0 1 0"/>
<feBlend mode="normal" in2="BackgroundImageFix" result="effect1_dropShadow_208_144"/>
<feBlend mode="normal" in="SourceGraphic" in2="effect1_dropShadow_208_144" result="shape"/>
</filter>
<filter id="filter2_d_208_144" x="11.7223" y="139.465" width="284" height="133.786" filterUnits="userSpaceOnUse" color-interpolation-filters="sRGB">
<feFlood flood-opacity="0" result="BackgroundImageFix"/>
<feColorMatrix in="SourceAlpha" type="matrix" values="0 0 0 0 0 0 0 0 0 0 0 0 0 0 0 0 0 0 127 0" result="hardAlpha"/>
<feOffset dx="10" dy="10"/>
<feGaussianBlur stdDeviation="5"/>
<feComposite in2="hardAlpha" operator="out"/>
<feColorMatrix type="matrix" values="0 0 0 0 0.536304 0 0 0 0 0.386139 0 0 0 0 0 0 0 0 1 0"/>
<feBlend mode="normal" in2="BackgroundImageFix" result="effect1_dropShadow_208_144"/>
<feBlend mode="normal" in="SourceGraphic" in2="effect1_dropShadow_208_144" result="shape"/>
</filter>
<filter id="filter3_d_208_144" x="0.82074" y="0.302429" width="421.902" height="276.126" filterUnits="userSpaceOnUse" color-interpolation-filters="sRGB">
<feFlood flood-opacity="0" result="BackgroundImageFix"/>
<feColorMatrix in="SourceAlpha" type="matrix" values="0 0 0 0 0 0 0 0 0 0 0 0 0 0 0 0 0 0 127 0" result="hardAlpha"/>
<feOffset dx="10" dy="10"/>
<feGaussianBlur stdDeviation="5"/>
<feComposite in2="hardAlpha" operator="out"/>
<feColorMatrix type="matrix" values="0 0 0 0 0.536304 0 0 0 0 0.386139 0 0 0 0 0 0 0 0 1 0"/>
<feBlend mode="normal" in2="BackgroundImageFix" result="effect1_dropShadow_208_144"/>
<feBlend mode="normal" in="SourceGraphic" in2="effect1_dropShadow_208_144" result="shape"/>
</filter>
<linearGradient id="paint0_linear_208_144" x1="282.5" y1="33.4999" x2="365" y2="135" gradientUnits="userSpaceOnUse">
<stop stop-color="#7C5A00"/>
<stop offset="1" stop-color="#FFB900"/>
</linearGradient>
<linearGradient id="paint1_linear_208_144" x1="206.222" y1="261.965" x2="285.222" y2="114.465" gradientUnits="userSpaceOnUse">
<stop stop-color="#87847D"/>
<stop offset="1" stop-color="#747066"/>
</linearGradient>
<linearGradient id="paint2_linear_208_144" x1="124.5" y1="163.5" x2="213.5" y2="300" gradientUnits="userSpaceOnUse">
<stop stop-color="#896200"/>
<stop offset="1" stop-color="#FFB800"/>
</linearGradient>
<linearGradient id="paint3_linear_208_144" x1="105" y1="-29.5001" x2="217.5" y2="274" gradientUnits="userSpaceOnUse">
<stop stop-color="#845F00"/>
<stop offset="1" stop-color="#FFB800"/>
</linearGradient>
</defs>
</svg>

